# xmcd
#
# Track frame offsets:
# 150
# 20880
# 53122
# 79961
# 98625
# 134113
# 153514
# 181335
# 204097
# 227823
# 245692
# 266746
# 290615
# 303823
# 327312
#
# Disc length: 4682 seconds
#
#
# Revision: 0
# Processed by: cddbd v1.5.1PL0 Copyright (c) Steve Scherf et al.
# Submitted via: FreeRIP 2.92 
#
DISCID=d812480f
DTITLE=O'Mallery's March - Live
DYEAR=2003
DGENRE=Blues
TTITLE0=Irish Ways and Laws
TTITLE1=Wait For Me
TTITLE2=Man Of The House
TTITLE3=Farewell Clonbur
TTITLE4=Lark in the Morning/Kesh/Old Joe's
TTITLE5=Streets Of Baltimore
TTITLE6=She Moved Through the Fair and Ms. Hamilton
TTITLE7=Kelly the Boy from Killanne
TTITLE8=McGoverns Reel and Sheepskin and Beeswax
TTITLE9=Yes Sister
TTITLE10=Danny Boy
TTITLE11=The Whale Song
TTITLE12=South Baltimore Lullaby
TTITLE13=Streams Of Whiskey
TTITLE14=Battle Of Maltimore
EXTD=
EXTT0=
EXTT1=
EXTT2=
EXTT3=
EXTT4=
EXTT5=
EXTT6=
EXTT7=
EXTT8=
EXTT9=
EXTT10=
EXTT11=
EXTT12=
EXTT13=
EXTT14=
PLAYORDER=
